HIERARCHY
ROOT __0
{
	OFFSET 0.0 0.0 0.0
	CHANNELS 0
	JOINT Bone.003
	{
		OFFSET 0.151944 0.004516 -0.037717
		CHANNELS 6 Xposition Yposition Zposition Xrotation Yrotation Zrotation
		JOINT Bone.004
		{
			OFFSET 0.006331 0.024152 -0.508480
			CHANNELS 3 Xrotation Yrotation Zrotation
			JOINT Bone.005
			{
				OFFSET 0.006331 0.031610 -0.264016
				CHANNELS 3 Xrotation Yrotation Zrotation
				JOINT Bone.006
				{
					OFFSET -0.006331 0.031610 -0.264016
					CHANNELS 3 Xrotation Yrotation Zrotation
					JOINT Bone.007
					{
						OFFSET 0.006331 0.032362 -0.270302
						CHANNELS 3 Xrotation Yrotation Zrotation
						End Site
						{
							OFFSET 0.012662 0.066230 -0.553176
						}
					}
				}
				JOINT Bone.008
				{
					OFFSET -0.006331 0.031610 -0.264016
					CHANNELS 3 Xrotation Yrotation Zrotation
					JOINT Bone.010
					{
						OFFSET -0.310218 0.008279 -0.069147
						CHANNELS 3 Xrotation Yrotation Zrotation
						JOINT Bone.011
						{
							OFFSET -0.132951 -0.015052 0.125722
							CHANNELS 3 Xrotation Yrotation Zrotation
							JOINT Bone.012
							{
								OFFSET -0.006331 -0.073004 0.609751
								CHANNELS 3 Xrotation Yrotation Zrotation
								JOINT Bone.013
								{
									OFFSET -0.025324 -0.071498 0.597179
									CHANNELS 3 Xrotation Yrotation Zrotation
									End Site
									{
										OFFSET 0.025324 -0.017310 0.144580
									}
								}
							}
						}
					}
				}
				JOINT Bone.009
				{
					OFFSET -0.006331 0.031610 -0.264016
					CHANNELS 3 Xrotation Yrotation Zrotation
					JOINT Bone.014
					{
						OFFSET 0.322880 0.006774 -0.056575
						CHANNELS 3 Xrotation Yrotation Zrotation
						JOINT Bone.015
						{
							OFFSET 0.151944 -0.012042 0.100577
							CHANNELS 3 Xrotation Yrotation Zrotation
							JOINT Bone.016
							{
								OFFSET 0.018993 -0.077519 0.647467
								CHANNELS 3 Xrotation Yrotation Zrotation
								JOINT Bone.017
								{
									OFFSET 0.000000 -0.065477 0.546890
									CHANNELS 3 Xrotation Yrotation Zrotation
									End Site
									{
										OFFSET 0.012662 -0.022578 0.188583
									}
								}
							}
						}
					}
				}
			}
		}
	}
	JOINT Bone.018
	{
		OFFSET 0.151944 0.004516 -0.037717
		CHANNELS 6 Xposition Yposition Zposition Xrotation Yrotation Zrotation
		JOINT Bone.019
		{
			OFFSET 0.234246 0.005268 -0.044003
			CHANNELS 3 Xrotation Yrotation Zrotation
			JOINT Bone.020
			{
				OFFSET 0.037986 -0.002223 1.083688
				CHANNELS 3 Xrotation Yrotation Zrotation
				JOINT Bone.024
				{
					OFFSET 0.044317 -0.105323 1.039463
					CHANNELS 3 Xrotation Yrotation Zrotation
					End Site
					{
						OFFSET 0.000000 -0.327629 -0.032850
					}
				}
			}
		}
	}
	JOINT Bone.021
	{
		OFFSET 0.151944 0.004516 -0.037717
		CHANNELS 6 Xposition Yposition Zposition Xrotation Yrotation Zrotation
		JOINT Bone.022
		{
			OFFSET -0.234246 0.007526 -0.062861
			CHANNELS 3 Xrotation Yrotation Zrotation
			JOINT Bone.023
			{
				OFFSET 0.069641 -0.000717 1.071116
				CHANNELS 3 Xrotation Yrotation Zrotation
				JOINT Bone.025
				{
					OFFSET 0.050648 -0.104571 1.033177
					CHANNELS 3 Xrotation Yrotation Zrotation
					End Site
					{
						OFFSET 0.000000 -0.329135 -0.020278
					}
				}
			}
		}
	}
}
MOTION
Frames: 16
Frame Time: 0.041667
0.151944 0.004516 -0.037717 2.919726 -1.440134 -5.491245 -2.989535 0.580246 -5.627548 -0.485787 -0.667863 -5.664246 -0.202840 1.462851 0.172120 0.037580 0.388363 0.047542 -5.626944 0.536729 -2.310260 -5.964781 -1.596471 -1.214863 -5.366937 -2.313307 -0.618839 -2.618102 -1.163277 -0.294209 0.000003 -0.000000 0.000000 7.792476 1.669735 -3.136447 8.243950 4.412138 -0.374198 7.433909 5.218621 0.462938 3.263610 2.418295 0.265464 -0.000004 -0.000001 -0.000002 0.151944 0.004516 -0.037717 -9.271864 5.349449 1.422224 -9.125922 -3.981742 -0.132258 -2.787984 -2.011672 -0.125904 0.000002 0.000001 -0.000000 0.151944 0.004516 -0.037717 11.266709 14.476576 5.907336 14.191333 -13.493966 -1.877961 -1.804092 -3.571176 -0.549121 0.000000 -0.000000 0.000001 
0.151944 0.004516 -0.037717 2.990159 -1.420623 -5.376271 -2.989484 0.577470 -5.517860 -0.518468 -0.690741 -5.561727 -0.202840 1.462851 0.172117 0.037581 0.388363 0.047542 -5.523632 0.527621 -2.274134 -5.853237 -1.528719 -1.195382 -5.267654 -2.221191 -0.604048 -2.566198 -1.112777 -0.287013 0.010165 0.016385 0.000176 7.636931 1.628691 -3.071845 8.079334 4.259589 -0.365601 7.286295 5.030641 0.455310 3.189937 2.321278 0.258137 -0.019099 -0.021446 -0.001316 0.151944 0.004516 -0.037717 -8.922881 6.032483 1.384275 -8.810754 -4.523889 -0.150070 -4.906012 -2.064522 -0.081539 0.000001 0.000000 -0.000001 0.151944 0.004516 -0.037717 11.122369 14.472491 5.905599 14.054441 -13.472651 -1.930565 -1.966760 -3.573372 -0.552168 -0.025379 0.000031 0.000232 
0.151944 0.004516 -0.037717 3.178905 -1.363472 -5.053888 -2.989672 0.571069 -5.209942 -0.605528 -0.753994 -5.273953 -0.202840 1.462851 0.172117 0.037581 0.388363 0.047544 -5.230111 0.501728 -2.171776 -5.536556 -1.347244 -1.142972 -4.985709 -1.974217 -0.565480 -2.418728 -0.977410 -0.268015 0.039016 0.060334 0.000346 7.202092 1.517912 -2.892041 7.619124 3.850653 -0.342935 6.873134 4.526878 0.432765 2.983537 2.061297 0.238024 -0.072554 -0.078929 -0.004744 0.151944 0.004516 -0.037717 -7.977228 7.864374 1.239450 -7.935835 -5.982272 -0.170020 -10.685341 -2.215873 0.025295 -0.000000 0.000000 -0.000001 0.151944 0.004516 -0.037717 10.705647 14.465383 5.896123 13.653574 -13.418992 -2.072578 -2.402726 -3.579223 -0.560366 -0.093382 0.000114 0.000856 
0.151944 0.004516 -0.037717 3.451907 -1.270232 -4.558019 -2.990612 0.563924 -4.735520 -0.730311 -0.849768 -4.830639 -0.202840 1.462850 0.172120 0.037581 0.388363 0.047545 -4.770986 0.461540 -2.012128 -5.041740 -1.084601 -1.067188 -4.545014 -1.616321 -0.512474 -2.188100 -0.781358 -0.241315 0.084088 0.124029 -0.000050 6.535801 1.355107 -2.618461 6.913883 3.258267 -0.312420 6.238904 3.797732 0.394074 2.666341 1.685010 0.207490 -0.154587 -0.162175 -0.009527 0.151944 0.004516 -0.037717 -6.578746 10.515929 0.928113 -6.603482 -8.103714 -0.131001 -19.276343 -2.456557 0.146551 -0.000003 -0.000000 0.000000 0.151944 0.004516 -0.037717 10.040967 14.463124 5.872571 13.003504 -13.347790 -2.280136 -3.033985 -3.587591 -0.572314 -0.191847 0.000235 0.001758 
0.151944 0.004516 -0.037717 3.774894 -1.142424 -3.922646 -2.992851 0.558908 -4.126321 -0.876078 -0.970201 -4.261475 -0.202839 1.462851 0.172119 0.037580 0.388363 0.047545 -4.170814 0.409823 -1.804054 -4.395716 -0.773312 -0.977685 -3.969396 -1.191486 -0.454492 -1.886685 -0.548799 -0.211040 0.142922 0.199648 -0.001569 5.685922 1.157609 -2.272596 6.014080 2.555437 -0.280341 5.427965 2.933785 0.337933 2.260274 1.239096 0.168871 -0.259431 -0.260909 -0.014914 0.151944 0.004516 -0.037717 -4.862051 13.652683 0.393140 -4.909718 -10.631452 0.029155 -29.695067 -2.763628 0.230375 -0.000004 -0.000001 0.000000 0.151944 0.004516 -0.037717 9.152624 14.473844 5.828821 12.118821 -13.273497 -2.529543 -3.782454 -3.597355 -0.586602 -0.308581 0.000376 0.002828 
0.151944 0.004516 -0.037717 4.113518 -0.982205 -3.181701 -2.997016 0.558871 -3.414070 -1.026183 -1.107153 -3.596088 -0.202839 1.462850 0.172118 0.037580 0.388363 0.047546 -3.454156 0.349382 -1.556413 -3.625261 -0.446018 -0.883586 -3.282468 -0.743838 -0.400377 -1.526822 -0.303955 -0.181136 0.213059 0.279381 -0.004750 4.700120 0.943101 -1.875473 4.969935 1.815356 -0.250972 4.484601 2.025770 0.265245 1.787304 0.770224 0.125059 -0.381301 -0.364854 -0.020112 0.151944 0.004516 -0.037717 -2.958728 16.938242 -0.401327 -2.945264 -13.305115 0.360531 -40.757730 -3.091085 0.238080 0.000008 0.000000 -0.000001 0.151944 0.004516 -0.037717 8.064733 14.506055 5.759121 11.013584 -13.210736 -2.797636 -4.570022 -3.607450 -0.601779 -0.431403 0.000521 0.003953 
0.151944 0.004516 -0.037717 4.433505 -0.792833 -2.368942 -3.003823 0.566644 -2.630493 -1.164205 -1.252009 -2.863994 -0.202840 1.462850 0.172120 0.037580 0.388363 0.047546 -2.645574 0.282854 -1.278093 -2.756949 -0.135603 -0.793032 -2.507625 -0.317760 -0.357792 -1.120782 -0.071096 -0.155221 0.292035 0.355399 -0.010130 3.625705 0.730136 -1.447293 3.831383 1.111339 -0.225174 3.453186 1.164344 0.180668 1.269524 0.325002 0.079925 -0.514420 -0.463741 -0.024281 0.151944 0.004516 -0.037717 -1.008704 20.042261 -1.457129 -0.800386 -15.863594 0.891579 -51.185615 -3.379350 0.160904 -0.000004 0.000000 -0.000001 0.151944 0.004516 -0.037717 6.801145 14.568652 5.658188 9.701161 -13.174786 -3.062117 -5.318531 -3.616880 -0.616335 -0.548134 0.000656 0.005024 
0.151944 0.004516 -0.037717 4.700796 -0.578912 -1.517828 -3.014092 0.585036 -1.807311 -1.274060 -1.395582 -2.094580 -0.202839 1.462850 0.172119 0.037580 0.388363 0.047546 -1.769639 0.212565 -0.978064 -1.817143 0.124725 -0.712837 -1.668060 0.042138 -0.332821 -0.680793 0.125443 -0.136452 0.377394 0.419886 -0.018200 2.509504 0.538478 -1.007178 2.648150 0.516615 -0.199634 2.378336 0.439737 0.093468 0.729107 -0.050083 0.038520 -0.652998 -0.547307 -0.026510 0.151944 0.004516 -0.037717 0.825996 22.648935 -2.734958 1.427553 -18.049373 1.622562 -59.791824 -3.576105 0.020554 -0.000002 0.000001 -0.000000 0.151944 0.004516 -0.037717 5.385483 14.670990 5.521314 8.194063 -13.181977 -3.301841 -5.949888 -3.624735 -0.628718 -0.646597 0.000769 0.005926 
0.151944 0.004516 -0.037717 4.881685 -0.346443 -0.661421 -3.028724 0.616837 -0.976200 -1.340058 -1.528108 -1.317084 -0.202839 1.462850 0.172119 0.037579 0.388363 0.047545 -0.850927 0.140400 -0.665369 -0.832034 0.301487 -0.648325 -0.786863 0.291052 -0.329760 -0.219044 0.261264 -0.127478 0.466673 0.465011 -0.029424 1.397770 0.389234 -0.573036 1.469773 0.104178 -0.166764 1.305047 -0.058488 0.017671 0.188384 -0.308702 0.007136 -0.791244 -0.605294 -0.025816 0.151944 0.004516 -0.037717 2.349876 24.460808 -4.155050 3.626136 -19.611647 2.522478 -65.587998 -3.649015 -0.148469 -0.000004 0.000000 -0.000000 0.151944 0.004516 -0.037717 3.841085 14.822863 5.344409 6.503932 -13.250052 -3.497041 -6.386078 -3.630159 -0.637340 -0.714606 0.000847 0.006550 
0.151944 0.004516 -0.037717 4.942913 -0.102662 0.167675 -3.048678 0.664828 -0.168793 -1.346906 -1.639306 -0.560639 -0.202841 1.462850 0.172119 0.037580 0.388363 0.047545 0.086006 0.067727 -0.349127 0.172294 0.360931 -0.603310 0.112859 0.383985 -0.351100 0.252268 0.311919 -0.130428 0.557405 0.482954 -0.044236 0.336165 0.304884 -0.161620 0.345536 -0.053329 -0.115199 0.278491 -0.241564 -0.028495 -0.330302 -0.404689 -0.006827 -0.923377 -0.627448 -0.021158 0.151944 0.004516 -0.037717 3.330794 25.193339 -5.610513 5.662658 -20.305700 3.531236 -67.720697 -3.581419 -0.320970 0.000004 0.000000 -0.000001 0.151944 0.004516 -0.037717 2.191031 15.034454 5.124003 4.641556 -13.398442 -3.629563 -6.549102 -3.632316 -0.640602 -0.739988 0.000874 0.006783 
0.151944 0.004516 -0.037717 4.898142 0.144604 0.942481 -3.074788 0.730470 0.587836 -1.315752 -1.719457 0.150247 -0.202839 1.462850 0.172119 0.037580 0.388363 0.047545 1.017838 -0.004369 -0.037809 1.171023 0.272551 -0.579524 1.008898 0.289021 -0.396150 0.721474 0.260525 -0.146051 0.647253 0.470158 -0.062596 -0.637468 0.261341 0.209038 -0.683891 -0.030439 -0.048837 -0.663870 -0.207637 -0.047493 -0.808306 -0.387300 -0.007280 -1.044575 -0.624472 -0.014082 0.151944 0.004516 -0.037717 3.828505 23.528467 -7.349679 7.568237 -18.607242 4.508074 -66.061808 -3.235502 -0.381604 -0.261791 -0.007238 0.037628 0.151944 0.004516 -0.037717 0.516643 16.022965 4.711518 2.697889 -14.342344 -3.690075 -6.534600 -3.672860 -0.640325 -0.580599 0.001132 0.002794 
0.151944 0.004516 -0.037717 4.792994 0.388380 1.654878 -3.106240 0.810006 1.284597 -1.279066 -1.769236 0.807156 -0.202840 1.462851 0.172119 0.037581 0.388363 0.047545 1.926018 -0.074119 0.262925 2.144297 0.050590 -0.571862 1.883012 0.030662 -0.457195 1.179076 0.120760 -0.171311 0.734453 0.432097 -0.083486 -1.514550 0.219836 0.532845 -1.609805 0.041828 0.019045 -1.513583 -0.120991 -0.055769 -1.241072 -0.340467 -0.003741 -1.153773 -0.614788 -0.006943 0.151944 0.004516 -0.037717 3.958324 18.746057 -9.558979 9.390512 -13.589804 5.254968 -61.475910 -2.526221 -0.286127 -0.972571 -0.027759 0.139623 0.151944 0.004516 -0.037717 -1.096212 18.299127 4.046028 0.765663 -16.575204 -3.738537 -6.494485 -3.782502 -0.639425 -0.147908 0.001769 -0.008038 
0.151944 0.004516 -0.037717 4.642632 0.622403 2.300762 -3.141399 0.898437 1.916881 -1.238685 -1.793699 1.405155 -0.202840 1.462850 0.172119 0.037580 0.388363 0.047545 2.793127 -0.139817 0.548011 3.073425 -0.271642 -0.573900 2.717925 -0.351348 -0.526078 1.616106 -0.085980 -0.202621 0.817382 0.374500 -0.105860 -2.293730 0.181590 0.811699 -2.431178 0.151174 0.087442 -2.269128 0.007560 -0.054027 -1.627413 -0.270129 0.003306 -1.250789 -0.599721 0.000129 0.151944 0.004516 -0.037717 3.564325 11.471919 -12.101736 11.070160 -5.896036 5.672578 -54.568837 -1.511848 -0.153932 -2.020495 -0.060316 0.289518 0.151944 0.004516 -0.037717 -2.608802 21.558795 3.236393 -1.138402 -19.782606 -3.844734 -6.435151 -3.943966 -0.637927 0.489857 0.002563 -0.024011 
0.151944 0.004516 -0.037717 4.462355 0.840935 2.875838 -3.178473 0.990817 2.480055 -1.196262 -1.797953 1.939316 -0.202840 1.462851 0.172118 0.037580 0.388363 0.047545 3.601663 -0.200048 0.812280 3.939642 -0.660595 -0.580732 3.496417 -0.816990 -0.596260 2.023610 -0.338232 -0.236850 0.894431 0.303094 -0.128699 -2.973645 0.147556 1.047496 -3.146937 0.285391 0.154770 -2.929006 0.167276 -0.043491 -1.966145 -0.182204 0.013240 -1.335447 -0.580599 0.006994 0.151944 0.004516 -0.037717 2.543732 2.444867 -14.929426 12.620293 3.732772 5.735341 -46.005733 -0.272516 -0.108238 -3.293441 -0.103552 0.470785 0.151944 0.004516 -0.037717 -3.980460 25.483548 2.368061 -2.994540 -23.640249 -4.055047 -6.362991 -4.139966 -0.635872 1.264418 0.003285 -0.043422 
0.151944 0.004516 -0.037717 4.267562 1.038687 3.375621 -3.215537 1.082254 2.969469 -1.153288 -1.787148 2.404714 -0.202839 1.462851 0.172120 0.037581 0.388363 0.047546 4.334080 -0.253647 1.050487 4.724166 -1.082600 -0.588947 4.201385 -1.326030 -0.662813 2.392658 -0.614474 -0.271326 0.963985 0.223617 -0.151004 -3.552915 0.118428 1.242107 -3.755974 0.432303 0.218981 -3.491711 0.347502 -0.025800 -2.256081 -0.082598 0.025314 -1.407572 -0.558743 0.013504 0.151944 0.004516 -0.037717 0.858798 -7.433035 -18.043072 14.089862 14.383581 5.466066 -36.565069 1.069554 -0.239009 -4.678934 -0.155177 0.666951 0.151944 0.004516 -0.037717 -5.175882 29.738111 1.506652 -4.777382 -27.812047 -4.390512 -6.284404 -4.353226 -0.633349 2.107406 0.003775 -0.064556 
0.151944 0.004516 -0.037717 4.073700 1.210735 3.795452 -3.250567 1.167891 3.380454 -1.111106 -1.766463 2.796434 -0.202841 1.462850 0.172120 0.037580 0.388363 0.047546 4.972795 -0.299637 1.257325 5.408212 -1.503847 -0.596497 4.815854 -1.838070 -0.722294 2.714365 -0.893134 -0.303789 1.024440 0.141804 -0.171806 -4.030142 0.094664 1.397377 -4.257116 0.579770 0.277646 -3.955720 0.537655 -0.002933 -2.496021 0.022801 0.038679 -1.466978 -0.535483 0.019508 0.151944 0.004516 -0.037717 -1.446426 -17.160345 -21.424857 15.521496 25.017747 4.922636 -27.114369 2.364343 -0.566674 -6.064242 -0.211528 0.861814 0.151944 0.004516 -0.037717 -6.168359 33.975837 0.702748 -6.448515 -31.955607 -4.842917 -6.205781 -4.566465 -0.630534 2.950387 0.003952 -0.085695 
